# xmcd
#
# Track frame offsets:
#	150
#	18228
#	35878
#	55128
#	73528
#	92265
#	109578
#	137903
#	163778
#	188828
#	207088
#
# Disc length: 2883 seconds
#
# Revision: 0
# Processed by: cddbd v1.5PL3 Copyright (c) Steve Scherf et al.
# Submitted via: dBpowerAMP V4.0
#
DISCID=910b410b
DTITLE=Marcos Vidal - El Arca (Bajo el Mismo Techo)
DYEAR=1999
DGENRE=Cristiana Niños
TTITLE0=Introducción (Instrumental)
TTITLE1=Bienvenidos al Arca
TTITLE2=El Pavo Real
TTITLE3=El Burro
TTITLE4=El Ruiseñor
TTITLE5=La Tortuga
TTITLE6=La Serpiente
TTITLE7=El Ciervo
TTITLE8=La Paloma
TTITLE9=Mientras Haya Luz
TTITLE10=Metidas de Pata (Bloopers)
EXTD=
EXTT0=
EXTT1=
EXTT2=
EXTT3=
EXTT4=
EXTT5=
EXTT6=
EXTT7=
EXTT8=
EXTT9=
EXTT10=
PLAYORDER=
